<?xml version="1.0" encoding="UTF-8" standalone="no"?>
<svg
   xmlns:dc="http://purl.org/dc/elements/1.1/"
   xmlns:cc="http://creativecommons.org/ns#"
   xmlns:rdf="http://www.w3.org/1999/02/22-rdf-syntax-ns#"
   xmlns:svg="http://www.w3.org/2000/svg"
   xmlns="http://www.w3.org/2000/svg"
   xmlns:sodipodi="http://sodipodi.sourceforge.net/DTD/sodipodi-0.dtd"
   xmlns:inkscape="http://www.inkscape.org/namespaces/inkscape"
   version="1.1"
   id="Layer_1"
   x="0px"
   y="0px"
   viewBox="0 0 512.00002 512.00002"
   xml:space="preserve"
   sodipodi:docname="clear.svg"
   inkscape:version="1.0.1 (3bc2e813f5, 2020-09-07, custom)"
   width="512"
   height="512"><metadata
   id="metadata55"><rdf:RDF><cc:Work
       rdf:about=""><dc:format>image/svg+xml</dc:format><dc:type
         rdf:resource="http://purl.org/dc/dcmitype/StillImage" /><dc:title></dc:title></cc:Work></rdf:RDF></metadata><defs
   id="defs53" /><sodipodi:namedview
   pagecolor="#ffffff"
   bordercolor="#666666"
   borderopacity="1"
   objecttolerance="10"
   gridtolerance="10"
   guidetolerance="10"
   inkscape:pageopacity="0"
   inkscape:pageshadow="2"
   inkscape:window-width="2560"
   inkscape:window-height="1416"
   id="namedview51"
   showgrid="true"
   inkscape:zoom="1.0938037"
   inkscape:cx="456.43932"
   inkscape:cy="185.01623"
   inkscape:window-x="1920"
   inkscape:window-y="24"
   inkscape:window-maximized="0"
   inkscape:current-layer="g1051"><inkscape:grid
     type="xygrid"
     id="grid209"
     empspacing="4"
     spacingx="16.000001"
     spacingy="16.000001"
     originx="0" /></sodipodi:namedview>
<g
   id="g6"
   transform="translate(3.34502,518.74605)">
	<g
   id="g4">
		<path
   d="M 60.197,418.646 H 27.571 c -6.978,0 -12.634,5.657 -12.634,12.634 0,6.977 5.656,12.634 12.634,12.634 h 32.627 c 6.978,0 12.634,-5.657 12.634,-12.634 -10e-4,-6.976 -5.658,-12.634 -12.635,-12.634 z"
   id="path2" />
	</g>
</g>
<g
   id="g12"
   transform="translate(3.34502,518.74605)">
	<g
   id="g10">
		<path
   d="m 114.205,467.363 c -4.934,-4.932 -12.933,-4.934 -17.867,0 l -23.07,23.07 c -4.934,4.934 -4.935,12.933 0,17.868 2.467,2.466 5.7,3.701 8.933,3.701 3.233,0 6.467,-1.234 8.933,-3.701 l 23.07,-23.07 c 4.935,-4.934 4.936,-12.933 0.001,-17.868 z"
   id="path8" />
	</g>
</g>
<g
   id="g18"
   transform="translate(3.34502,518.74605)">
	<g
   id="g16">
		<path
   d="M 484.431,424.963 H 262.965 L 489.664,198.275 c 9.851,-9.852 9.852,-25.881 0.001,-35.733 L 334.522,7.388 c -9.853,-9.851 -25.882,-9.851 -35.735,0 l -247.99,247.99 c -14.318,14.318 -22.203,33.354 -22.203,53.602 0,20.247 7.885,39.284 22.203,53.602 l 74.701,74.699 c 8.351,8.351 19.455,12.951 31.266,12.951 H 484.43 c 6.978,0 12.634,-5.657 12.634,-12.634 10e-4,-6.977 -5.655,-12.635 -12.633,-12.635 z m -327.666,0 c -5.062,0 -9.82,-1.972 -13.401,-5.551 L 68.665,344.713 c -19.704,-19.704 -19.704,-51.765 0,-71.468 l 40.557,-40.557 133.335,133.336 c 2.467,2.466 5.7,3.7 8.933,3.7 3.233,0 6.467,-1.234 8.933,-3.7 4.934,-4.934 4.935,-12.933 10e-4,-17.868 L 127.09,214.821 316.655,25.254 471.797,180.409 227.23,424.963 Z"
   id="path14" />
	</g>
</g>
<g
   id="g20"
   transform="translate(3.34502,518.74605)">
</g>
<g
   id="g22"
   transform="translate(3.34502,518.74605)">
</g>
<g
   id="g24"
   transform="translate(3.34502,518.74605)">
</g>
<g
   id="g26"
   transform="translate(3.34502,518.74605)">
</g>
<g
   id="g28"
   transform="translate(3.34502,518.74605)">
</g>
<g
   id="g30"
   transform="translate(3.34502,518.74605)">
</g>
<g
   id="g32"
   transform="translate(3.34502,518.74605)">
</g>
<g
   id="g34"
   transform="translate(3.34502,518.74605)">
</g>
<g
   id="g36"
   transform="translate(3.34502,518.74605)">
</g>
<g
   id="g38"
   transform="translate(3.34502,518.74605)">
</g>
<g
   id="g40"
   transform="translate(3.34502,518.74605)">
</g>
<g
   id="g42"
   transform="translate(3.34502,518.74605)">
</g>
<g
   id="g44"
   transform="translate(3.34502,518.74605)">
</g>
<g
   id="g46"
   transform="translate(3.34502,518.74605)">
</g>
<g
   id="g48"
   transform="translate(3.34502,518.74605)">
</g>
<g
   id="g1051"><path
     style="fill:none;stroke:#000000;stroke-width:24;stroke-linecap:round;stroke-linejoin:round;stroke-miterlimit:4;stroke-dasharray:none;stroke-opacity:1"
     d="M 64.000004,192.00001 128.00001,496.00003 H 384.00002 L 448.00003,192.00001 Z"
     id="path211" /><path
     style="fill:none;stroke:#000000;stroke-width:24;stroke-linecap:round;stroke-linejoin:round;stroke-miterlimit:4;stroke-dasharray:none;stroke-opacity:1"
     d="M 256.00002,256.00002 V 448.00003"
     id="path1038" /><path
     style="fill:none;stroke:#000000;stroke-width:24;stroke-linecap:round;stroke-linejoin:round;stroke-miterlimit:4;stroke-dasharray:none;stroke-opacity:1"
     d="m 320.00002,448.00003 32,-192.00001"
     id="path1040" /><path
     style="fill:none;stroke:#000000;stroke-width:24;stroke-linecap:round;stroke-linejoin:round;stroke-miterlimit:4;stroke-dasharray:none;stroke-opacity:1"
     d="m 153.21241,256.00002 38.7876,192.00001"
     id="path1042" /><g
     id="g1059"
     inkscape:transform-center-x="200.89187"
     inkscape:transform-center-y="-74.332769"
     transform="rotate(15,569.25567,163.17029)"><path
       style="fill:none;stroke:#000000;stroke-width:24;stroke-linecap:round;stroke-linejoin:round;stroke-miterlimit:4;stroke-dasharray:none;stroke-opacity:1"
       d="m 48.000003,192.00001 c 0,0 80.000007,-48 208.000017,-48 128,0 208.00001,48 208.00001,48 z"
       id="path1053"
       sodipodi:nodetypes="cscc" /><path
       style="fill:none;stroke:#000000;stroke-width:24;stroke-linecap:round;stroke-linejoin:round;stroke-miterlimit:4;stroke-dasharray:none;stroke-opacity:1"
       d="m 208.00001,144.00001 c 0,0 0,-48.000004 48.00001,-48.000004 48,0 48,48.000004 48,48.000004"
       id="path1055" /></g></g></svg>
